<?xml version="1.0" standalone="no"?>
<!DOCTYPE svg PUBLIC "-//W3C//DTD SVG 20010904//EN"
 "http://www.w3.org/TR/2001/REC-SVG-20010904/DTD/svg10.dtd">
<svg version="1.0" xmlns="http://www.w3.org/2000/svg"
 width="200.000000pt" height="200.000000pt" viewBox="0 0 200.000000 200.000000"
 preserveAspectRatio="xMidYMid meet">
<metadata>
Created by potrace 1.10, written by Peter Selinger 2001-2011
</metadata>
<g transform="translate(0.000000,200.000000) scale(0.100000,-0.100000)"
fill="#000000" stroke="none">
<path d="M850 1959 c-36 -5 -108 -25 -162 -43 -430 -147 -701 -571 -650 -1021
28 -254 149 -477 349 -643 350 -293 877 -293 1226 0 170 142 281 320 334 536
26 106 24 333 -6 442 -50 188 -127 323 -257 454 -130 129 -273 211 -452 257
-91 24 -286 33 -382 18z m369 -39 c568 -136 877 -747 652 -1289 -113 -271
-361 -479 -661 -553 -127 -31 -311 -29 -443 5 -635 167 -915 896 -554 1442 96
147 275 292 437 354 75 29 176 54 260 65 66 8 227 -5 309 -24z"/>
<path d="M850 1889 c-237 -36 -454 -178 -597 -389 -47 -70 -110 -194 -129
-257 -22 -69 -25 -308 -6 -414 41 -231 157 -414 348 -555 177 -131 375 -199
552 -191 53 3 122 9 152 15 90 16 233 74 351 144 58 34 164 120 119 96 -14 -7
-39 -26 -56 -41 -17 -16 -38 -29 -46 -31 -8 -1 -26 -9 -39 -17 -44 -30 -143
-76 -214 -101 -317 -114 -712 -10 -935 246 -87 99 -112 138 -151 234 -22 53
-44 106 -49 117 -28 63 -32 385 -6 485 36 138 137 301 254 411 87 83 143 121
237 165 323 149 710 87 968 -155 177 -167 257 -323 288 -562 14 -111 2 -255
-30 -354 -26 -83 -76 -192 -107 -232 -19 -25 -21 -33 -10 -33 23 0 110 188
138 295 33 130 32 343 -2 465 -46 169 -100 262 -228 393 -48 48 -109 102 -137
119 -27 18 -52 36 -55 40 -10 13 -137 66 -212 88 -85 25 -291 35 -398 19z"/>
<path d="M1011 1830 c-1 -18 16 -46 23 -40 2 3 -2 16 -9 30 -8 15 -14 19 -14
10z"/>
<path d="M956 1804 c-17 -12 -17 -14 -4 -14 9 0 20 5 23 11 11 17 2 18 -19 3z"/>
<path d="M810 1795 c7 -8 22 -15 34 -15 18 0 17 2 -8 15 -36 19 -42 19 -26 0z"/>
<path d="M751 1782 c-14 -26 -7 -42 10 -25 6 6 9 19 7 29 -3 17 -5 17 -17 -4z"/>
<path d="M893 1766 c-28 -13 -44 -47 -32 -69 8 -14 6 -16 -18 -11 -22 4 -31 0
-42 -18 -13 -22 -13 -22 4 -8 9 8 30 13 46 12 27 -3 28 -1 23 25 -4 21 0 33
15 47 20 18 22 18 41 1 11 -10 20 -14 20 -8 0 22 -34 40 -57 29z"/>
<path d="M1043 1720 c5 -18 2 -20 -26 -15 -20 4 -39 1 -50 -7 -16 -12 -12 -14
37 -14 55 0 56 1 56 28 0 15 -5 28 -11 28 -6 0 -9 -9 -6 -20z"/>
<path d="M1117 1730 c13 -13 56 -23 49 -12 -3 5 -17 12 -32 15 -14 2 -22 1
-17 -3z"/>
<path d="M1330 1720 c-19 -15 -21 -20 -9 -20 16 0 46 27 38 35 -2 2 -15 -5
-29 -15z"/>
<path d="M720 1722 c0 -4 12 -15 25 -25 19 -14 25 -15 25 -4 0 8 -11 19 -25
25 -14 6 -25 8 -25 4z"/>
<path d="M613 1709 c11 -7 23 -7 35 0 14 9 11 10 -18 10 -29 0 -32 -1 -17 -10z"/>
<path d="M674 1694 c-4 -10 -9 -22 -11 -26 -2 -5 0 -8 6 -8 11 0 26 39 17 47
-3 3 -9 -3 -12 -13z"/>
<path d="M1220 1700 c0 -5 12 -10 28 -9 24 0 25 1 7 9 -27 12 -35 12 -35 0z"/>
<path d="M556 1674 c-9 -9 -14 -19 -11 -22 3 -3 13 2 22 11 9 9 14 19 11 22
-3 3 -13 -2 -22 -11z"/>
<path d="M1447 1672 c-10 -10 -17 -26 -17 -35 0 -10 -8 -17 -18 -17 -19 0 -65
-29 -46 -30 5 0 15 5 22 12 8 8 18 9 36 0 30 -14 37 -7 25 25 -7 20 -6 30 7
44 10 11 15 19 12 19 -3 0 -12 -8 -21 -18z"/>
<path d="M1326 1641 c-4 -5 -2 -20 3 -32 8 -22 8 -22 13 9 4 30 -4 43 -16 23z"/>
<path d="M870 1625 c-72 -24 -131 -47 -128 -51 2 -2 37 7 78 20 41 13 100 27
131 31 49 6 159 -4 224 -21 11 -3 7 3 -10 12 -41 24 -231 29 -295 9z"/>
<path d="M1510 1617 c-34 -21 -34 -22 -10 -25 16 -3 30 3 41 17 22 27 25 27
38 -9 7 -21 17 -30 31 -30 27 0 22 -21 -7 -34 -14 -7 -21 -18 -20 -34 2 -31
-19 -40 -26 -11 -4 15 -11 20 -21 15 -9 -3 -23 -9 -32 -13 -14 -5 -15 -1 -10
24 5 22 2 34 -13 47 -21 19 -35 9 -20 -14 5 -8 9 -25 9 -37 0 -16 8 -24 28
-29 53 -11 97 -32 98 -45 0 -8 2 -30 2 -49 2 -27 5 -31 14 -22 10 10 10 19 1
43 -12 31 -12 31 16 26 21 -4 36 0 52 14 23 20 20 40 -4 21 -7 -6 -27 -14 -45
-17 -29 -5 -32 -3 -32 19 0 13 7 29 16 36 37 31 36 47 -8 89 -22 23 -46 41
-52 40 -6 0 -27 -10 -46 -22z"/>
<path d="M568 1613 c12 -2 20 -9 17 -14 -4 -5 -1 -9 4 -9 6 0 11 7 11 15 0 10
-9 15 -27 14 -24 -2 -25 -2 -5 -6z"/>
<path d="M629 1599 c-11 -11 -18 -23 -15 -27 4 -3 13 4 21 15 8 12 25 24 38
26 l22 4 -22 2 c-13 0 -32 -8 -44 -20z"/>
<path d="M443 1589 c14 -8 22 -8 30 0 8 8 3 11 -18 11 -26 -1 -28 -2 -12 -11z"/>
<path d="M506 1583 c-4 -9 -2 -21 4 -27 7 -7 10 -2 10 17 0 31 -5 34 -14 10z"/>
<path d="M920 1590 c-124 -18 -243 -68 -315 -131 -37 -33 -119 -148 -155 -218
-30 -59 -53 -191 -45 -262 12 -104 25 -89 25 30 0 111 1 116 40 206 38 85 47
97 121 161 52 45 74 70 64 72 -9 2 -23 -2 -31 -9 -8 -6 -17 -9 -20 -7 -3 3 16
20 43 38 27 19 49 28 51 21 2 -6 34 5 80 29 116 59 223 71 367 40 22 -5 53
-12 69 -15 15 -3 26 -9 23 -12 -4 -3 19 -21 51 -40 31 -18 75 -52 96 -74 48
-50 126 -149 126 -161 0 -4 5 -8 11 -8 21 0 -48 103 -106 157 -33 31 -79 74
-102 95 -78 73 -246 110 -393 88z"/>
<path d="M1229 1585 c42 -19 46 -19 27 0 -8 8 -25 15 -38 15 -20 -1 -18 -3 11
-15z"/>
<path d="M404 1551 c1 -16 4 -27 9 -24 10 6 9 41 -2 47 -4 3 -8 -8 -7 -23z"/>
<path d="M940 1529 c0 -20 -1 -21 -25 -5 -38 25 -48 21 -40 -16 7 -33 24 -62
32 -55 2 2 -1 16 -6 31 -13 33 -1 33 29 1 29 -31 41 -21 33 28 -6 39 -23 51
-23 16z"/>
<path d="M990 1524 c-6 -14 -10 -35 -10 -46 0 -21 0 -21 21 -2 20 18 21 18 35
0 21 -29 29 -11 15 34 -14 48 -46 55 -61 14z"/>
<path d="M1090 1521 c-13 -25 -13 -74 0 -66 6 3 10 15 10 25 0 10 5 22 11 26
8 5 10 -4 7 -30 -2 -20 -2 -36 1 -36 2 0 18 15 34 33 27 30 29 26 10 -20 -3
-7 -1 -13 5 -13 6 0 15 14 21 31 18 51 -6 67 -40 27 l-18 -23 -1 33 c0 37 -23
44 -40 13z"/>
<path d="M523 1515 c-31 -13 -45 -35 -23 -35 6 0 10 4 10 9 0 5 11 12 25 15
14 4 25 11 25 16 0 12 2 12 -37 -5z"/>
<path d="M823 1510 c-4 -15 -9 -17 -23 -10 -13 7 -21 6 -26 -2 -4 -7 -2 -14 6
-16 8 -3 24 -16 37 -30 13 -14 23 -23 23 -21 8 64 8 99 -1 99 -6 0 -13 -9 -16
-20z"/>
<path d="M400 1490 c0 -13 30 -13 50 0 11 7 7 10 -17 10 -18 0 -33 -4 -33 -10z"/>
<path d="M1207 1465 c-20 -43 -21 -45 -4 -45 7 0 21 16 30 35 20 43 21 45 4
45 -7 0 -21 -16 -30 -35z"/>
<path d="M1384 1481 c11 -11 23 -21 28 -21 14 0 -1 19 -25 31 -22 12 -22 12
-3 -10z"/>
<path d="M700 1452 c-24 -19 -22 -29 15 -76 15 -19 16 -19 45 9 16 16 30 36
30 45 0 40 -52 53 -90 22z m66 -17 c8 -19 -13 -45 -31 -39 -16 7 -27 32 -19
45 9 15 44 10 50 -6z"/>
<path d="M367 1437 c3 -15 9 -30 14 -33 14 -8 10 20 -5 41 -13 18 -14 18 -9
-8z"/>
<path d="M1257 1453 c-16 -15 -6 -62 15 -77 28 -20 36 -12 13 14 -18 20 -15
50 6 50 7 0 21 -7 31 -17 16 -15 18 -15 18 0 0 27 -64 50 -83 30z"/>
<path d="M1710 1432 c0 -17 6 -32 13 -35 10 -4 12 3 9 24 -6 40 -22 47 -22 11z"/>
<path d="M1451 1427 c18 -14 99 -129 122 -173 9 -17 18 -42 21 -55 24 -115 33
-149 37 -144 4 3 2 -19 -3 -49 -4 -30 -7 -63 -6 -73 3 -32 -14 -102 -28 -114
-8 -6 -14 -22 -14 -35 0 -13 -4 -24 -8 -24 -8 0 -63 -99 -65 -117 0 -4 -5 -12
-9 -18 -5 -5 -19 -24 -31 -41 -34 -47 -113 -112 -176 -143 -193 -97 -437 -84
-618 34 -70 45 -83 56 -78 65 5 7 -23 24 -36 22 -3 0 -6 4 -6 11 0 7 -14 32
-30 57 -33 48 -77 132 -88 165 -6 19 -7 19 -16 2 -8 -13 -1 -34 30 -90 22 -40
50 -82 61 -92 11 -10 20 -24 20 -31 0 -39 176 -161 286 -198 143 -47 360 -29
499 42 84 42 186 147 240 247 99 181 119 382 54 552 -24 65 -139 213 -163 213
-6 0 -4 -6 5 -13z"/>
<path d="M875 1414 c-8 -9 -15 -12 -15 -9 0 8 -84 -39 -122 -69 -44 -34 -122
-147 -143 -206 -23 -67 -31 -284 -12 -328 42 -94 99 -158 140 -154 13 0 17 -4
13 -14 -3 -8 -2 -12 3 -9 6 3 51 -8 101 -25 97 -32 163 -38 247 -21 106 21
210 92 269 183 24 37 44 72 44 77 0 6 4 11 9 11 13 0 33 128 27 170 -15 110
-51 184 -123 258 -59 60 -139 111 -203 130 -19 6 -77 13 -127 15 -75 5 -96 3
-108 -9z m285 -62 c81 -38 182 -142 211 -217 29 -77 37 -206 16 -267 -59 -174
-235 -289 -417 -272 -73 7 -167 43 -219 84 -56 45 -81 77 -116 152 -43 93 -30
262 28 358 56 93 151 166 244 190 64 15 191 2 253 -28z m-479 -653 c18 -22 36
-43 39 -47 12 -15 -36 25 -52 43 -27 31 -78 131 -78 151 0 11 13 -9 29 -44 15
-34 43 -81 62 -103z"/>
<path d="M894 1272 c-84 -2 -104 -6 -118 -21 -15 -17 -16 -22 -3 -53 20 -47
28 -394 10 -390 -7 1 -13 -5 -13 -13 0 -20 14 -19 31 2 19 23 20 400 2 408 -7
2 -13 14 -13 26 0 21 1 21 123 14 169 -10 253 -50 298 -141 50 -104 -8 -293
-95 -308 -6 -1 -26 -10 -45 -20 -29 -15 -137 -28 -294 -36 -5 0 -6 -4 -2 -10
3 -5 66 -7 158 -4 124 5 160 9 195 26 54 25 91 73 117 153 52 153 -30 330
-165 360 -45 10 -63 11 -186 7z m261 -482 c-10 -17 -82 -50 -107 -50 -14 1 -1
8 30 19 29 10 58 23 65 30 14 14 20 14 12 1z"/>
<path d="M907 1193 c-3 -7 -2 -289 2 -370 l1 -33 60 0 c61 0 105 15 129 44 16
19 38 119 35 161 -1 17 -3 51 -5 78 -1 26 -6 47 -10 47 -4 0 -9 9 -12 19 -9
35 -66 61 -134 61 -34 0 -64 -3 -66 -7z m154 -36 c34 -21 49 -70 49 -156 0
-93 -16 -141 -55 -167 -69 -45 -127 -7 -131 88 -1 26 1 46 4 44 4 -2 6 34 4
81 -2 47 -1 97 3 110 6 24 9 25 56 19 28 -4 59 -12 70 -19z"/>
<path d="M270 1400 c0 -21 17 -46 25 -38 4 4 0 17 -9 30 -10 14 -16 17 -16 8z"/>
<path d="M402 1370 c-12 -12 -22 -31 -22 -42 0 -17 -3 -19 -12 -10 -15 15 -78
16 -78 2 0 -6 10 -8 24 -4 15 3 34 -1 50 -11 26 -17 26 -17 26 8 0 15 10 35
22 47 12 11 19 22 17 25 -3 3 -15 -4 -27 -15z"/>
<path d="M1721 1367 c-24 -12 -48 -67 -30 -67 5 0 9 9 9 19 0 11 15 28 33 40
35 22 27 28 -12 8z"/>
<path d="M1300 1344 c0 -5 20 -30 45 -54 25 -24 45 -40 45 -34 0 5 -20 30 -45
54 -25 24 -45 40 -45 34z"/>
<path d="M1616 1342 c-3 -5 6 -12 20 -15 15 -3 23 0 21 7 -5 14 -33 20 -41 8z"/>
<path d="M435 1284 c-16 -25 -30 -52 -31 -60 -1 -7 -10 -28 -19 -46 -9 -18
-19 -54 -22 -80 -5 -45 -15 -59 -27 -39 -3 5 -26 14 -51 20 -53 13 -57 27 -14
45 25 11 28 15 15 25 -10 8 -16 9 -21 1 -3 -5 -3 -10 2 -10 14 0 -21 -20 -36
-20 -9 0 -12 8 -9 25 3 16 -1 30 -13 41 -17 16 -18 15 -7 -17 6 -19 14 -41 19
-50 5 -11 1 -23 -11 -35 -10 -10 -27 -37 -39 -58 l-20 -39 30 -39 c17 -21 34
-38 39 -38 5 0 -2 -28 -16 -62 -13 -34 -24 -64 -24 -68 0 -8 55 -40 69 -40 6
0 8 7 5 15 -4 8 -17 15 -29 15 -33 0 -38 14 -14 36 15 13 19 26 15 46 -6 31 0
34 30 14 13 -10 25 -11 35 -5 27 17 39 10 33 -20 -5 -23 -2 -32 14 -40 20 -10
20 -9 15 26 -8 52 -19 63 -64 63 -50 0 -50 16 2 39 l40 18 -28 6 c-19 4 -37 0
-55 -13 -26 -19 -27 -19 -33 -1 -3 10 -4 25 -3 32 2 9 -6 14 -19 13 -25 -1
-26 15 0 34 9 7 17 19 17 25 0 7 5 19 10 27 8 13 12 12 25 -7 13 -18 20 -20
47 -12 39 11 46 5 25 -19 -20 -22 -22 -43 -5 -60 16 -16 29 -15 27 1 -1 6 -1
21 0 32 2 20 2 20 10 0 5 -11 11 -43 15 -72 4 -29 15 -71 26 -95 20 -45 28
-30 9 19 -28 73 -22 259 11 338 5 11 11 32 14 47 4 15 17 39 31 54 27 29 29
34 17 34 -4 0 -21 -21 -37 -46z"/>
<path d="M225 1249 c-27 -17 -28 -19 -8 -19 12 0 27 9 33 20 13 24 13 24 -25
-1z"/>
<path d="M1739 1257 c5 -5 17 -5 28 2 16 9 15 10 -9 9 -16 -2 -24 -6 -19 -11z"/>
<path d="M292 1248 c3 -7 17 -14 31 -16 30 -4 34 -14 13 -31 -20 -17 -26 -81
-8 -81 10 0 12 7 8 25 -4 16 -1 34 9 48 21 30 20 33 -17 51 -38 19 -41 20 -36
4z"/>
<path d="M1790 1246 c-6 -9 -10 -21 -8 -28 3 -8 9 -4 17 10 15 28 9 39 -9 18z"/>
<path d="M1400 1239 c0 -4 11 -31 25 -60 14 -30 22 -43 19 -29 -7 26 -43 100
-44 89z"/>
<path d="M1576 1150 c3 -19 9 -61 14 -94 5 -32 12 -61 15 -64 9 -10 -6 95 -22
148 -10 34 -12 37 -7 10z"/>
<path d="M1670 1170 c8 -5 24 -10 35 -10 17 0 17 2 5 10 -8 5 -24 10 -35 10
-17 0 -17 -2 -5 -10z"/>
<path d="M1756 1148 c-24 -34 -19 -47 7 -16 12 15 33 29 47 31 21 4 20 4 -7 6
-23 1 -36 -5 -47 -21z"/>
<path d="M1824 1026 c-9 -15 -14 -29 -11 -32 3 -3 13 6 23 20 9 15 14 29 11
32 -3 3 -13 -6 -23 -20z"/>
<path d="M1453 951 c-16 -104 -58 -189 -132 -259 -31 -30 -55 -59 -53 -65 2
-5 -4 -7 -13 -3 -11 4 -14 2 -9 -6 5 -8 2 -9 -10 -5 -9 4 -15 3 -12 -2 3 -5
-16 -18 -42 -29 -68 -28 -90 -34 -157 -42 -57 -7 -58 -7 -15 -9 110 -3 230 47
314 132 88 87 133 178 142 286 4 45 5 81 2 81 -2 0 -9 -36 -15 -79z"/>
<path d="M1704 986 c11 -9 27 -16 35 -16 21 0 2 16 -29 24 -24 7 -24 6 -6 -8z"/>
<path d="M1800 950 c36 -11 52 -11 45 0 -3 6 -21 10 -38 9 -31 -1 -31 -1 -7
-9z"/>
<path d="M1720 873 c0 -5 -10 -15 -22 -21 -17 -8 -18 -11 -7 -11 19 -1 45 26
35 36 -3 3 -6 2 -6 -4z"/>
<path d="M1561 856 c0 -11 -20 -58 -43 -105 -33 -67 -60 -104 -122 -166 -44
-44 -79 -83 -78 -87 2 -8 -4 -10 -30 -12 -7 -1 -18 -7 -23 -14 -23 -29 -144
-62 -233 -63 -83 -2 -84 -2 -32 -9 76 -10 190 12 275 54 52 26 85 51 126 98
101 116 174 243 166 294 -2 16 -5 20 -6 10z"/>
<path d="M455 824 c11 -86 118 -241 211 -304 46 -30 75 -42 40 -15 -97 74
-194 198 -233 300 -22 57 -23 58 -18 19z"/>
<path d="M1802 808 c-7 -7 -12 -24 -12 -38 0 -24 -3 -26 -34 -22 -18 2 -36 0
-39 -5 -3 -5 8 -9 26 -9 18 0 39 -2 47 -4 11 -4 14 2 12 24 -2 16 4 36 14 47
18 21 6 27 -14 7z"/>
<path d="M302 764 c-25 -17 -48 -54 -33 -54 5 0 13 9 16 20 4 13 18 23 36 27
16 3 29 9 29 14 0 14 -23 11 -48 -7z"/>
<path d="M1675 677 c-11 -17 -26 -27 -41 -27 -26 0 -30 -10 -12 -28 9 -9 9
-18 -1 -38 -15 -34 -12 -37 22 -19 25 13 28 12 46 -13 l20 -27 1 29 c0 20 10
39 33 59 19 17 25 26 14 23 -20 -6 -60 10 -54 22 3 4 1 16 -3 27 -6 18 -8 17
-25 -8z m25 -43 c0 -8 5 -14 12 -14 8 0 6 -6 -4 -16 -17 -17 -54 -12 -43 6 3
6 -1 7 -9 4 -24 -9 -19 13 6 30 23 17 38 13 38 -10z"/>
<path d="M305 680 c11 -5 27 -9 35 -9 9 0 8 4 -5 9 -11 5 -27 9 -35 9 -9 0 -8
-4 5 -9z"/>
<path d="M401 607 c-14 -6 -27 -19 -29 -27 -4 -12 -1 -11 15 3 11 9 25 17 31
17 7 0 12 5 12 10 0 12 0 12 -29 -3z"/>
<path d="M285 580 c-16 -7 -11 -9 20 -9 29 -1 36 2 25 9 -17 11 -19 11 -45 0z"/>
<path d="M470 525 c-9 -18 -22 -25 -42 -25 -28 0 -37 -13 -17 -26 7 -4 9 -22
6 -44 -5 -37 -5 -37 23 -27 15 6 36 7 46 3 21 -8 30 -5 26 8 -1 4 5 20 14 33
13 21 14 27 3 34 -8 5 -17 9 -21 9 -5 0 -8 8 -8 18 0 35 -16 44 -30 17z m30
-40 c21 -26 -1 -62 -39 -62 -26 0 -31 4 -31 25 0 24 24 51 46 52 6 0 17 -7 24
-15z"/>
<path d="M832 518 c-27 -27 -10 -59 38 -72 24 -7 24 -6 6 8 -10 8 -23 17 -28
18 -19 7 5 38 28 38 13 0 24 5 24 10 0 14 -54 12 -68 -2z"/>
<path d="M1569 514 c-9 -11 -23 -14 -44 -11 l-31 5 0 -49 c0 -41 3 -49 18 -49
10 0 23 -9 30 -20 17 -27 24 -25 40 8 7 15 23 28 36 30 28 4 28 15 0 27 -17 7
-23 18 -23 43 0 36 -6 40 -26 16z m1 -59 c12 -15 7 -45 -7 -45 -13 0 -34 40
-28 50 9 14 21 12 35 -5z"/>
<path d="M922 508 c-15 -15 -15 -51 0 -66 36 -36 93 11 69 57 -13 23 -50 28
-69 9z m51 -20 c7 -21 -4 -38 -24 -38 -14 0 -19 7 -19 25 0 18 5 25 19 25 11
0 21 -6 24 -12z"/>
<path d="M1110 500 c0 -22 -1 -22 -18 -7 -31 28 -43 21 -40 -23 2 -25 8 -40
16 -40 9 0 11 7 7 20 -8 26 7 26 30 0 24 -26 38 -15 30 23 -9 41 -25 59 -25
27z"/>
<path d="M1010 470 c0 -22 5 -40 10 -40 6 0 10 18 10 40 0 22 -4 40 -10 40 -5
0 -10 -18 -10 -40z"/>
<path d="M1727 453 c-9 -2 -15 -9 -12 -14 4 -5 3 -14 -1 -20 -4 -8 -9 -8 -13
-1 -4 6 -24 -8 -48 -34 -51 -54 -44 -58 10 -6 33 31 38 33 28 12 -11 -23 -10
-22 14 5 23 27 50 67 43 64 -2 -1 -11 -3 -21 -6z"/>
<path d="M620 419 c0 -9 7 -22 15 -29 19 -16 19 0 0 26 -12 16 -14 16 -15 3z"/>
<path d="M1346 371 c5 -23 2 -32 -15 -43 -27 -17 -27 -26 1 -30 13 -2 29 -15
37 -32 13 -27 14 -28 24 -10 14 25 27 34 55 34 25 0 30 18 6 27 -12 4 -14 14
-9 39 7 37 4 40 -25 22 -15 -10 -22 -9 -38 5 -29 26 -42 21 -36 -12z m68 -36
c19 0 16 -24 -4 -35 -24 -13 -33 -8 -36 17 -4 23 5 35 19 26 7 -4 16 -8 21 -8z"/>
<path d="M576 365 c-29 -12 -29 -13 -8 -24 18 -9 23 -8 32 10 15 27 11 29 -24
14z"/>
<path d="M668 335 c-4 -4 -4 -14 -1 -23 4 -10 2 -13 -6 -8 -14 9 -61 0 -61
-12 0 -4 20 -7 45 -7 25 0 45 4 44 10 -1 20 -15 46 -21 40z"/>
<path d="M780 315 c0 -17 -8 -29 -25 -37 -30 -14 -33 -28 -5 -28 11 0 21 -7
21 -15 1 -8 3 -19 4 -25 1 -5 3 -16 4 -22 1 -8 10 -3 21 10 13 16 29 23 47 22
43 -3 45 -2 29 22 -9 13 -13 31 -9 46 5 23 4 24 -24 18 -25 -6 -31 -4 -36 13
-7 29 -27 26 -27 -4z m44 -28 c23 -17 12 -42 -19 -45 -25 -2 -35 20 -15 33 6
4 8 11 5 16 -9 13 8 11 29 -4z"/>
<path d="M1172 300 c-7 -19 -20 -32 -37 -36 l-26 -6 30 -19 c18 -11 31 -27 31
-39 0 -24 8 -25 30 -5 12 11 24 12 48 6 37 -11 36 -12 17 25 -9 19 -11 32 -5
38 17 17 11 26 -15 26 -14 0 -30 9 -37 20 -17 27 -24 25 -36 -10z m61 -71 c-7
-7 -20 -8 -30 -5 -17 7 -17 8 1 22 23 17 48 2 29 -17z"/>
<path d="M987 274 c-11 -15 -28 -24 -45 -24 l-26 0 23 -16 c18 -13 22 -23 17
-45 -6 -33 0 -36 31 -14 18 13 22 13 33 0 21 -26 43 -19 36 11 -5 18 -2 32 10
45 16 18 16 19 -4 19 -11 0 -29 11 -39 24 l-18 25 -18 -25z m31 -45 c-2 -6 -8
-10 -13 -10 -5 0 -11 4 -13 10 -2 6 4 11 13 11 9 0 15 -5 13 -11z"/>
</g>
</svg>
