<?xml version="1.0" standalone="no"?>
<!DOCTYPE svg PUBLIC "-//W3C//DTD SVG 20010904//EN"
 "http://www.w3.org/TR/2001/REC-SVG-20010904/DTD/svg10.dtd">
<svg version="1.0" xmlns="http://www.w3.org/2000/svg"
 width="200.000000pt" height="200.000000pt" viewBox="0 0 200.000000 200.000000"
 preserveAspectRatio="xMidYMid meet">
<metadata>
Created by potrace 1.10, written by Peter Selinger 2001-2011
</metadata>
<g transform="translate(0.000000,200.000000) scale(0.100000,-0.100000)"
fill="#e7b75a" stroke="none">
<path d="M876 1970 c-583 -92 -953 -636 -816 -1200 22 -91 89 -240 140 -315
85 -124 228 -249 361 -316 534 -268 1167 -12 1363 551 186 534 -131 1116 -684
1257 -107 27 -271 37 -364 23z m304 -31 c415 -80 723 -416 770 -836 57 -520
-322 -988 -847 -1044 -396 -43 -771 165 -953 529 -66 132 -92 250 -93 417 0
114 4 156 22 225 116 441 505 737 951 723 52 -2 120 -8 150 -14z"/>
<path d="M930 1903 c-46 -6 -164 -34 -230 -55 -117 -37 -217 -96 -308 -182
-98 -92 -232 -287 -232 -339 0 -10 -4 -16 -9 -13 -5 3 -11 -9 -14 -27 -4 -17
-13 -63 -22 -102 -18 -79 -20 -220 -5 -327 12 -80 39 -182 47 -174 5 4 3 16
-14 76 -13 45 -33 214 -32 270 2 71 22 197 41 245 22 60 42 101 62 130 12 17
20 31 18 33 -17 17 220 282 253 282 3 0 21 11 39 25 73 56 231 115 351 131 89
13 250 5 337 -15 149 -35 327 -139 439 -257 26 -27 77 -93 113 -147 36 -54 66
-94 66 -89 0 5 -11 26 -25 46 -14 20 -25 39 -25 41 0 2 -15 25 -32 51 -18 25
-37 53 -43 62 -13 21 -128 132 -137 132 -4 0 -24 16 -45 35 -21 19 -42 35 -46
35 -12 0 -139 61 -157 75 -35 28 -119 47 -230 51 -63 3 -119 6 -125 7 -5 2
-21 1 -35 0z"/>
<path d="M967 1819 c-18 -21 -17 -36 1 -25 8 5 24 46 18 46 -1 0 -10 -9 -19
-21z"/>
<path d="M1000 1832 c0 -5 7 -15 15 -22 8 -7 15 -8 15 -2 0 5 -7 15 -15 22 -8
7 -15 8 -15 2z"/>
<path d="M790 1813 c0 -18 37 -44 54 -37 9 3 23 3 32 0 15 -6 14 -9 -5 -30
-19 -20 -21 -28 -12 -43 11 -17 12 -17 9 2 -2 11 4 28 14 39 23 25 5 55 -29
48 -14 -3 -32 3 -43 13 -11 10 -20 14 -20 8z"/>
<path d="M756 1795 c-11 -8 -14 -15 -8 -15 7 0 12 -4 12 -10 0 -5 -6 -10 -14
-10 -8 0 -17 -4 -20 -9 -3 -4 5 -6 18 -4 17 4 25 13 28 34 3 16 4 29 4 29 -1
0 -10 -7 -20 -15z"/>
<path d="M1040 1800 c0 -6 7 -10 15 -10 8 0 15 2 15 4 0 2 -7 6 -15 10 -8 3
-15 1 -15 -4z"/>
<path d="M1146 1793 c-6 -14 -5 -15 5 -6 7 7 10 15 7 18 -3 3 -9 -2 -12 -12z"/>
<path d="M1235 1800 c-3 -5 -1 -10 4 -10 6 0 11 5 11 10 0 6 -2 10 -4 10 -3 0
-8 -4 -11 -10z"/>
<path d="M1263 1789 c-2 -23 3 -25 10 -4 4 8 3 16 -1 19 -4 3 -9 -4 -9 -15z"/>
<path d="M1205 1790 c3 -5 8 -10 11 -10 2 0 4 5 4 10 0 6 -5 10 -11 10 -5 0
-7 -4 -4 -10z"/>
<path d="M645 1770 c6 -10 4 -12 -11 -6 -15 6 -17 5 -6 -5 9 -9 15 -10 23 -2
8 8 7 13 -2 18 -8 6 -10 4 -4 -5z"/>
<path d="M1060 1765 c-7 -9 -8 -15 -2 -15 5 0 12 7 16 15 3 8 4 15 2 15 -2 0
-9 -7 -16 -15z"/>
<path d="M926 1760 c7 -6 10 -28 8 -48 -3 -29 -2 -32 5 -17 15 32 12 62 -6 70
-14 4 -15 3 -7 -5z"/>
<path d="M1350 1736 c-7 -13 -22 -27 -33 -30 -12 -3 -18 -8 -15 -12 12 -12 45
7 57 32 15 34 8 42 -9 10z"/>
<path d="M1380 1744 c0 -22 38 -46 61 -39 12 4 19 3 16 -2 -3 -5 -2 -15 2 -22
6 -9 11 -10 15 -2 4 6 2 11 -3 11 -6 0 -10 6 -8 13 1 7 -7 11 -23 9 -16 -2
-31 5 -42 20 -10 13 -18 18 -18 12z"/>
<path d="M580 1735 c0 -9 40 -45 49 -45 3 0 14 7 25 15 17 13 16 14 -13 13
-16 -1 -37 5 -46 12 -8 7 -15 9 -15 5z"/>
<path d="M1041 1724 c0 -11 3 -14 6 -6 3 7 2 16 -1 19 -3 4 -6 -2 -5 -13z"/>
<path d="M730 1708 c16 -18 23 -19 33 -9 9 10 9 11 -4 6 -10 -4 -19 0 -22 9
-4 9 -11 16 -17 16 -6 0 -2 -10 10 -22z"/>
<path d="M1130 1720 c0 -5 5 -10 10 -10 6 0 10 5 10 10 0 6 -4 10 -10 10 -5 0
-10 -4 -10 -10z"/>
<path d="M564 1701 c3 -4 -1 -17 -9 -27 -20 -27 -18 -36 5 -22 21 13 28 58 9
58 -5 0 -8 -4 -5 -9z"/>
<path d="M676 1694 c-9 -8 -16 -19 -16 -23 0 -12 29 -47 30 -35 0 5 -5 15 -12
22 -9 9 -7 16 7 32 21 24 14 27 -9 4z"/>
<path d="M990 1706 c0 -2 7 -7 16 -10 8 -3 12 -2 9 4 -6 10 -25 14 -25 6z"/>
<path d="M1210 1700 c0 -5 14 -10 32 -10 36 0 35 4 -4 14 -17 4 -28 2 -28 -4z"/>
<path d="M1351 1687 c-13 -21 -12 -21 5 -5 10 10 16 20 13 22 -3 3 -11 -5 -18
-17z"/>
<path d="M956 1684 c-5 -14 -4 -15 9 -4 17 14 19 20 6 20 -5 0 -12 -7 -15 -16z"/>
<path d="M1046 1691 c-4 -7 -5 -15 -2 -18 9 -9 19 4 14 18 -4 11 -6 11 -12 0z"/>
<path d="M1150 1690 c-9 -6 -10 -10 -3 -10 6 0 15 5 18 10 8 12 4 12 -15 0z"/>
<path d="M795 1672 c-13 -13 -19 -14 -22 -4 -3 6 -10 12 -16 12 -6 0 -4 -8 6
-17 16 -16 18 -16 33 -1 12 12 23 14 47 7 17 -5 33 -6 36 -4 7 7 -1 12 -35 18
-22 4 -36 1 -49 -11z"/>
<path d="M1304 1665 c11 -8 20 -25 22 -37 4 -34 5 -35 13 -8 8 27 -2 42 -34
53 -20 7 -20 7 -1 -8z"/>
<path d="M1433 1640 c5 -38 -4 -53 -18 -30 -10 16 -41 11 -60 -10 -10 -11 -13
-20 -7 -20 6 0 14 5 18 11 4 6 19 9 37 5 37 -7 63 10 46 30 -6 8 -9 23 -6 34
3 11 0 20 -5 20 -7 0 -9 -16 -5 -40z"/>
<path d="M1530 1630 c-14 -11 -31 -20 -38 -20 -7 0 -20 -7 -28 -15 -14 -13
-14 -17 0 -37 11 -15 12 -25 5 -34 -7 -9 -7 -18 1 -31 10 -16 11 -15 6 5 -3
17 -1 22 9 18 22 -8 25 21 4 40 -17 16 -18 19 -4 26 8 5 20 6 25 3 5 -3 18 8
28 24 18 30 36 33 25 5 -7 -18 20 -44 46 -44 30 0 26 -17 -9 -35 -25 -13 -29
-19 -20 -35 10 -18 12 -18 56 -3 25 8 43 17 41 19 -2 3 -16 0 -30 -5 -34 -13
-42 -2 -17 24 19 20 19 23 4 36 -9 7 -26 18 -38 24 -11 6 -21 16 -21 22 0 26
-20 32 -45 13z"/>
<path d="M906 1633 c-1 -1 -17 -5 -35 -8 -18 -3 -50 -13 -70 -21 -20 -9 -54
-19 -76 -24 l-40 -8 48 -1 c26 -1 47 3 47 7 0 14 93 34 187 39 87 5 192 -7
232 -27 44 -21 94 -40 98 -37 7 8 -125 67 -164 73 -36 5 -222 11 -227 7z"/>
<path d="M558 1620 c12 -5 27 -20 32 -32 l9 -23 0 22 c1 22 -25 44 -51 42 -7
0 -3 -4 10 -9z"/>
<path d="M470 1611 c0 -6 -16 -9 -37 -8 l-36 2 -1 -47 c-1 -42 0 -46 13 -33
12 11 12 19 3 39 -14 32 2 45 27 22 17 -15 19 -15 24 -1 10 24 37 18 37 -8 0
-12 9 -28 20 -35 13 -7 20 -8 20 -2 0 6 -7 13 -15 16 -8 4 -15 14 -15 25 0 10
-9 23 -20 29 -13 7 -20 7 -20 1z"/>
<path d="M635 1610 c-8 -13 45 -13 65 0 11 7 6 10 -22 10 -20 0 -40 -4 -43
-10z"/>
<path d="M915 1590 c-33 -3 -80 -14 -105 -23 -25 -9 -53 -17 -62 -17 -10 0
-18 -4 -18 -10 0 -5 5 -10 11 -10 13 0 -68 -63 -93 -73 -10 -3 -18 -11 -18
-17 0 -6 -4 -9 -9 -6 -15 10 -85 -50 -123 -106 -59 -85 -89 -184 -93 -303 -4
-108 2 -168 16 -159 5 2 11 -8 15 -23 4 -15 24 -65 46 -110 42 -89 113 -171
185 -212 23 -13 41 -28 40 -32 -1 -4 1 -7 6 -8 29 -4 26 3 -15 32 -26 19 -66
50 -88 71 -44 39 -117 145 -126 183 -4 13 -10 23 -14 23 -5 0 -14 26 -21 58
-7 31 -17 60 -22 63 -6 4 -7 49 -4 110 4 77 13 122 32 174 31 81 63 137 75
130 5 -3 12 0 16 6 4 8 3 9 -4 5 -20 -12 -13 3 13 32 14 15 25 23 25 17 0 -5
16 6 35 25 19 19 35 30 35 25 0 -5 15 5 33 22 17 17 70 50 117 73 l85 42 120
0 c120 0 163 -9 192 -38 9 -8 22 -13 29 -10 8 3 14 1 14 -3 0 -5 20 -21 45
-36 67 -38 170 -139 204 -198 17 -29 31 -45 31 -37 1 22 34 -47 50 -105 16
-56 20 -215 6 -257 -6 -20 -5 -28 4 -28 6 0 8 5 5 10 -3 6 -2 10 2 10 10 0 12
15 14 133 2 77 -20 181 -40 197 -4 3 -12 18 -19 33 -7 15 -16 26 -21 22 -5 -3
-14 10 -20 28 -19 56 -153 183 -231 219 -13 6 -13 7 0 7 33 2 -76 51 -145 66
-77 16 -109 16 -210 5z"/>
<path d="M615 1570 c-3 -5 -1 -10 4 -10 6 0 11 5 11 10 0 6 -2 10 -4 10 -3 0
-8 -4 -11 -10z"/>
<path d="M678 1558 c6 -6 18 -8 28 -6 14 3 12 5 -9 10 -19 3 -25 2 -19 -4z"/>
<path d="M935 1528 c7 -32 7 -33 -12 -15 -11 9 -25 17 -31 17 -7 0 -12 5 -12
12 0 8 -3 9 -10 2 -6 -6 -6 -23 2 -47 14 -46 32 -49 23 -4 l-7 32 22 -27 c31
-40 54 -37 46 5 -3 17 -7 38 -8 45 -1 6 -5 12 -10 12 -6 0 -6 -14 -3 -32z"/>
<path d="M990 1524 c-6 -14 -10 -35 -10 -47 1 -21 1 -21 14 -4 12 16 17 16 35
6 27 -18 32 -10 20 34 -12 45 -44 51 -59 11z m40 -16 c0 -5 -6 -8 -14 -8 -9 0
-12 7 -9 21 4 16 8 17 14 7 5 -7 9 -16 9 -20z"/>
<path d="M673 1518 c-24 -11 -43 -24 -43 -30 0 -5 -4 -7 -9 -3 -6 3 -15 -5
-22 -17 -12 -22 -11 -22 7 -8 10 8 28 22 39 31 11 10 36 21 55 26 19 5 30 12
25 15 -6 3 -29 -3 -52 -14z"/>
<path d="M1076 1509 c-8 -42 -8 -49 4 -49 5 0 12 11 16 25 9 36 27 31 19 -5
-8 -36 6 -39 28 -7 18 27 33 17 18 -12 -7 -12 -7 -22 -2 -26 13 -7 18 2 26 48
7 33 5 37 -14 37 -12 0 -25 -8 -28 -17 -6 -15 -8 -14 -13 7 -4 15 -14 26 -27
28 -16 2 -22 -4 -27 -29z"/>
<path d="M1300 1523 c8 -3 22 -11 30 -17 13 -10 13 -9 1 7 -7 9 -21 17 -30 16
-13 0 -14 -1 -1 -6z"/>
<path d="M513 1510 c-13 -5 -23 -15 -22 -22 0 -10 2 -10 6 0 2 6 12 12 21 12
10 0 24 5 32 10 13 9 13 10 0 9 -8 0 -25 -4 -37 -9z"/>
<path d="M823 1501 c-4 -16 -9 -18 -22 -9 -16 10 -38 2 -110 -43 -27 -17 -26
-25 2 -59 23 -27 25 -27 51 -11 31 19 44 56 27 83 -18 29 13 23 37 -7 24 -31
36 -32 29 -4 -3 12 -2 32 3 45 6 16 6 24 -1 24 -6 0 -13 -9 -16 -19z m-63 -75
c0 -32 -18 -43 -37 -23 -20 20 -10 47 17 47 15 0 20 -7 20 -24z"/>
<path d="M1650 1490 c-25 -10 -44 -23 -43 -28 1 -6 -4 -15 -12 -22 -11 -9 -12
-17 -4 -32 6 -11 8 -26 5 -35 -4 -9 -1 -13 6 -10 13 4 15 26 7 57 -3 11 4 15
23 15 14 0 30 3 34 8 16 15 35 7 29 -12 -5 -15 2 -24 27 -37 28 -15 30 -19 13
-22 -11 -2 -24 -9 -30 -14 -7 -7 -2 -8 15 -3 43 12 47 24 18 50 -16 13 -28 34
-28 46 0 18 -4 20 -22 14 -13 -3 -34 -9 -48 -12 -22 -6 -24 -4 -11 10 7 10 21
17 31 17 10 0 23 7 30 15 15 18 16 18 -40 -5z"/>
<path d="M380 1496 c0 -9 37 -12 55 -5 15 6 11 8 -17 8 -21 1 -38 -1 -38 -3z"/>
<path d="M1205 1464 c-18 -44 -18 -44 -2 -44 15 0 49 64 40 74 -13 13 -23 5
-38 -30z"/>
<path d="M1350 1490 c0 -6 7 -10 15 -10 8 0 15 2 15 4 0 2 -7 6 -15 10 -8 3
-15 1 -15 -4z"/>
<path d="M1508 1493 c-10 -2 -18 -8 -18 -13 0 -5 7 -7 15 -3 9 3 23 -1 33 -9
22 -20 52 -19 52 0 0 9 -3 12 -6 9 -4 -3 -16 0 -28 8 -11 8 -23 14 -26 14 -3
-1 -13 -3 -22 -6z"/>
<path d="M427 1469 c-9 -6 -27 -7 -40 -4 -17 5 -19 4 -7 -4 8 -6 10 -11 4 -11
-7 0 -9 -11 -6 -25 2 -14 10 -25 17 -25 8 0 22 -3 32 -6 15 -5 15 -3 -2 7 -43
27 -45 45 -5 54 17 4 30 11 30 16 0 11 -1 11 -23 -2z"/>
<path d="M1392 1471 c-11 -7 -11 -9 0 -14 9 -3 15 1 15 9 0 8 -1 14 -1 14 -1
0 -7 -4 -14 -9z"/>
<path d="M345 1460 c-3 -5 -21 -10 -38 -10 -18 0 -39 -5 -47 -10 -12 -8 -10
-10 8 -10 13 0 33 -5 45 -11 22 -10 22 -10 2 7 -20 16 -20 16 3 11 15 -4 25 1
32 14 11 19 6 27 -5 9z"/>
<path d="M467 1454 c3 -7 9 -14 14 -14 14 0 10 17 -5 23 -10 4 -13 1 -9 -9z"/>
<path d="M1255 1450 c-19 -21 -20 -17 21 -92 8 -16 23 -32 33 -38 26 -13 89
-104 117 -167 13 -29 26 -53 28 -53 7 0 -7 44 -21 65 -7 11 -13 26 -13 33 0 7
-6 19 -12 27 -7 7 -22 26 -33 41 -11 16 -33 43 -50 59 -36 36 -68 92 -60 105
9 14 39 12 53 -2 9 -9 12 -9 12 -1 0 11 -38 43 -51 43 -3 0 -14 -9 -24 -20z"/>
<path d="M1424 1445 c1 -8 6 -18 11 -22 4 -4 5 -2 1 5 -5 8 -1 12 11 12 15 0
16 2 3 10 -21 14 -29 12 -26 -5z"/>
<path d="M1013 1434 c3 -5 -14 -7 -38 -6 -48 4 -159 -24 -150 -37 3 -5 -2 -12
-11 -15 -10 -4 -13 -2 -8 6 4 6 -8 0 -28 -15 -19 -15 -38 -24 -43 -19 -5 4 -5
2 -2 -4 3 -6 -8 -24 -24 -40 -95 -89 -146 -219 -135 -344 7 -89 19 -137 31
-130 5 3 14 -11 20 -31 5 -21 18 -46 28 -57 10 -11 14 -23 9 -26 -13 -8 -23 6
-66 93 -22 45 -36 65 -36 51 0 -28 68 -160 84 -161 6 -1 14 -1 17 -1 4 1 15
-8 24 -18 10 -11 23 -20 28 -20 6 0 2 10 -9 22 -10 12 -13 18 -6 14 21 -12 13
9 -12 33 -14 13 -35 49 -47 80 -12 31 -26 60 -31 65 -4 6 -8 55 -8 109 0 89 3
105 30 161 39 83 132 176 217 218 71 35 143 43 231 26 115 -21 227 -109 283
-223 27 -56 31 -74 33 -163 2 -60 -2 -114 -9 -136 -13 -37 -94 -166 -105 -166
-3 0 -15 -8 -26 -18 -92 -85 -251 -113 -384 -67 -65 23 -127 53 -135 65 -3 5
-11 10 -17 10 -7 0 -6 -5 2 -15 10 -12 9 -16 -4 -21 -16 -6 -16 -8 0 -25 9
-11 23 -19 29 -19 7 0 18 -6 24 -14 14 -17 145 -60 163 -54 7 3 -10 10 -37 17
-82 20 -140 50 -127 63 8 8 17 8 34 0 23 -12 23 -12 -2 -6 -16 4 -22 3 -15 -4
6 -5 24 -12 40 -16 24 -5 27 -4 15 5 -13 9 -12 10 3 5 10 -3 21 -6 23 -6 3 0
2 -5 -2 -12 -5 -8 -2 -9 10 -5 10 4 15 3 11 -3 -8 -13 254 -8 263 6 4 5 19 15
34 21 15 7 45 29 67 49 23 20 41 33 41 29 0 -13 75 96 100 145 31 59 34 79 33
180 -1 100 -7 136 -22 133 -5 -2 -8 4 -5 12 8 19 -15 55 -75 118 -51 55 -125
110 -135 100 -3 -4 -6 -1 -6 6 0 7 -5 9 -12 5 -8 -5 -9 -2 -5 10 4 10 3 15 -4
11 -5 -4 -16 -2 -23 5 -8 6 -25 13 -37 15 -80 16 -91 17 -86 9z m60 -21 c-7
-2 -21 -2 -30 0 -10 3 -4 5 12 5 17 0 24 -2 18 -5z m-284 -65 c-2 -2 -31 -28
-64 -58 l-60 -55 55 58 c30 31 59 57 64 57 5 0 7 -1 5 -2z m-34 -718 c8 -13
-5 -13 -25 0 -13 8 -13 10 2 10 9 0 20 -4 23 -10z"/>
<path d="M1460 1423 c0 -26 0 -28 8 -28 10 -1 71 -63 65 -68 -2 -2 8 -28 23
-56 44 -89 65 -177 65 -278 1 -100 -7 -153 -22 -153 -6 0 -8 -4 -5 -9 3 -5 -1
-14 -9 -21 -8 -7 -15 -18 -15 -26 0 -7 -13 -39 -30 -70 -16 -31 -26 -62 -23
-68 3 -6 3 -8 -2 -4 -13 12 -33 -11 -28 -32 3 -12 0 -20 -6 -20 -7 0 -9 6 -5
12 4 7 -1 6 -11 -3 -9 -9 -15 -25 -13 -35 3 -17 6 -16 28 10 14 16 30 34 36
40 17 19 91 178 104 226 29 104 14 325 -26 386 -9 13 -13 28 -9 33 8 14 -23
78 -41 85 -9 3 -12 10 -9 16 3 5 1 10 -6 10 -7 0 -25 15 -40 33 -16 17 -28 26
-29 20z m120 -158 c0 -5 -9 5 -20 23 -26 42 -26 56 0 17 11 -16 20 -34 20 -40z"/>
<path d="M245 1410 c-18 -7 -18 -8 6 -15 23 -6 27 -11 24 -38 -2 -18 -1 -24 1
-14 3 9 10 17 15 17 14 0 11 12 -9 36 -12 16 -22 20 -37 14z"/>
<path d="M406 1364 c-5 -14 -4 -15 9 -4 17 14 19 20 6 20 -5 0 -12 -7 -15 -16z"/>
<path d="M474 1355 c-12 -12 -24 -29 -27 -36 -4 -8 -11 -21 -17 -29 -19 -30
-50 -109 -50 -129 0 -12 -4 -21 -9 -21 -11 0 -8 -256 4 -282 14 -34 22 -18 14
30 -28 168 12 357 97 460 30 36 20 42 -12 7z"/>
<path d="M565 1370 c-3 -5 -1 -10 4 -10 6 0 11 5 11 10 0 6 -2 10 -4 10 -3 0
-8 -4 -11 -10z"/>
<path d="M1870 1340 c6 -11 13 -20 16 -20 2 0 0 9 -6 20 -6 11 -13 20 -16 20
-2 0 0 -9 6 -20z"/>
<path d="M375 1325 c0 -14 3 -25 8 -25 4 0 7 11 7 25 0 14 -3 25 -7 25 -5 0
-8 -11 -8 -25z"/>
<path d="M663 1309 c-50 -54 -93 -118 -92 -138 0 -9 9 2 19 24 10 22 41 66 70
98 28 31 49 57 46 57 -3 0 -22 -18 -43 -41z"/>
<path d="M1590 1338 c0 -4 9 -8 21 -8 11 0 30 -5 42 -12 19 -10 20 -9 9 4 -14
17 -72 30 -72 16z"/>
<path d="M1836 1325 c11 -50 43 -141 43 -125 1 22 -25 114 -38 136 -10 16 -10
14 -5 -11z"/>
<path d="M303 1328 c-45 -12 -42 -22 3 -13 26 4 39 2 45 -7 5 -8 9 -9 9 -2 0
22 -24 31 -57 22z"/>
<path d="M1681 1308 c0 -28 2 -30 9 -13 12 28 12 45 0 45 -5 0 -10 -15 -9 -32z"/>
<path d="M1706 1281 c-3 -5 8 -14 25 -20 19 -7 28 -15 23 -22 -4 -8 -3 -9 5
-5 6 4 9 12 6 17 -4 5 8 12 25 15 32 7 51 24 26 24 -8 0 -26 -5 -39 -11 -18
-8 -30 -8 -45 0 -12 6 -23 7 -26 2z"/>
<path d="M235 1260 c-3 -11 -10 -20 -14 -20 -4 0 -16 -7 -27 -15 -17 -13 -16
-14 15 -5 19 5 39 7 45 3 6 -3 6 -1 -1 7 -8 9 -9 19 -2 32 6 11 6 18 0 18 -5
0 -13 -9 -16 -20z"/>
<path d="M271 1273 c-2 -29 12 -43 43 -42 l31 1 -29 7 c-16 3 -33 15 -37 26
-4 11 -8 15 -8 8z"/>
<path d="M835 1266 c-66 -10 -70 -13 -73 -39 -2 -16 2 -34 8 -42 7 -8 13 -81
16 -190 l5 -176 -26 -31 c-24 -28 -25 -32 -10 -48 24 -26 71 -32 134 -15 58
15 123 16 114 2 -7 -11 66 0 82 13 8 7 18 9 23 6 13 -8 54 24 48 39 -6 15 47
68 58 58 4 -5 7 -3 5 2 -1 6 4 24 11 40 21 51 25 158 6 195 -9 18 -16 39 -16
46 0 7 -20 30 -45 50 -24 21 -42 42 -38 46 3 5 17 -1 32 -14 23 -20 22 -19 -3
10 -29 31 -43 42 -31 23 3 -5 0 -13 -6 -17 -6 -3 -15 -1 -19 6 -4 7 -13 9 -20
5 -8 -5 -11 -4 -7 2 4 6 -3 8 -18 5 -15 -2 -25 0 -25 7 0 7 -26 11 -72 12 -52
1 -66 3 -48 9 37 12 1 10 -85 -4z m193 -38 c92 -22 139 -54 173 -118 14 -28
29 -170 17 -170 -5 0 -8 -8 -8 -18 0 -31 -30 -81 -62 -105 -16 -12 -31 -20
-33 -17 -1 3 -11 -3 -22 -12 -27 -25 -115 -47 -120 -30 -3 6 -12 12 -21 12
-15 0 -15 -2 -2 -10 14 -9 -18 -13 -107 -14 -13 0 -23 -4 -23 -9 0 -5 -7 -4
-15 3 -8 7 -22 10 -30 6 -10 -4 -15 1 -15 16 0 18 2 19 17 7 12 -10 15 -11 9
-1 -4 7 -2 20 5 29 12 14 21 57 21 103 1 175 -5 275 -17 284 -7 6 -16 21 -19
33 -6 19 -3 22 31 26 53 7 164 -1 221 -15z m109 -455 c-9 -9 -24 -18 -34 -19
-10 -2 -31 -6 -48 -9 -18 -4 -9 3 25 18 67 30 79 32 57 10z"/>
<path d="M792 1210 c0 -14 2 -19 5 -12 2 6 2 18 0 25 -3 6 -5 1 -5 -13z"/>
<path d="M870 1198 c-12 -22 -12 -22 6 -6 10 10 15 20 12 24 -4 3 -12 -5 -18
-18z"/>
<path d="M936 1200 l-39 -5 2 -202 c1 -134 -2 -203 -9 -203 -5 0 -11 15 -11
33 -2 31 -2 31 -6 4 -5 -34 14 -62 32 -47 7 5 39 11 71 11 93 2 143 40 145
111 0 26 2 29 8 14 7 -19 8 -19 13 1 3 11 1 28 -4 37 -5 10 -8 36 -5 59 3 24
0 48 -6 56 -10 12 -9 13 3 6 12 -6 13 -5 3 6 -7 7 -13 20 -13 29 0 26 -61 75
-105 86 -22 5 -58 7 -79 4z m81 -29 c53 -14 79 -47 93 -116 13 -62 1 -152 -26
-193 -22 -34 -83 -58 -107 -42 -12 7 -17 7 -12 1 3 -6 2 -11 -4 -11 -5 0 -13
5 -16 10 -4 6 -10 8 -15 5 -5 -3 -9 77 -9 177 l-1 183 27 -1 c16 -1 47 -6 70
-13z"/>
<path d="M1021 1025 c1 -19 18 -51 18 -35 0 8 -4 22 -9 30 -5 8 -9 11 -9 5z"/>
<path d="M1028 923 c7 -3 16 -2 19 1 4 3 -2 6 -13 5 -11 0 -14 -3 -6 -6z"/>
<path d="M818 1083 c2 -63 5 -113 8 -110 8 8 5 210 -3 218 -4 5 -7 -44 -5
-108z"/>
<path d="M866 1029 c1 -66 4 -123 8 -126 3 -4 6 48 6 115 0 66 -3 123 -7 125
-5 3 -7 -49 -7 -114z"/>
<path d="M1155 1059 c-4 -6 -5 -12 -2 -15 2 -3 7 2 10 11 7 17 1 20 -8 4z"/>
<path d="M860 879 c0 -5 5 -7 10 -4 6 3 10 8 10 11 0 2 -4 4 -10 4 -5 0 -10
-5 -10 -11z"/>
<path d="M846 797 c3 -10 9 -15 12 -12 3 3 0 11 -7 18 -10 9 -11 8 -5 -6z"/>
<path d="M1003 1273 c9 -2 23 -2 30 0 6 3 -1 5 -18 5 -16 0 -22 -2 -12 -5z"/>
<path d="M1815 1263 c-11 -3 -23 -10 -27 -17 -11 -17 -10 -38 2 -31 6 4 8 11
5 16 -4 5 0 9 8 9 8 0 20 7 27 15 7 8 11 14 9 14 -2 -1 -13 -4 -24 -6z"/>
<path d="M1652 1243 c-36 -15 -39 -24 -15 -49 12 -11 18 -13 21 -5 3 9 7 9 17
1 8 -7 20 -10 28 -8 11 2 11 9 -2 39 -16 35 -16 35 -49 22z m23 -23 c-11 -5
-27 -9 -35 -9 -13 -1 -13 0 0 9 8 5 24 9 35 9 20 0 20 0 0 -9z"/>
<path d="M1718 1243 c7 -3 16 -2 19 1 4 3 -2 6 -13 5 -11 0 -14 -3 -6 -6z"/>
<path d="M322 1198 c-17 -17 -15 -43 6 -59 13 -10 15 -10 5 0 -7 8 -8 23 -3
42 10 33 9 34 -8 17z"/>
<path d="M1911 1193 c-1 -12 4 -25 9 -28 12 -7 12 2 0 30 -8 19 -9 19 -9 -2z"/>
<path d="M188 1194 c6 -3 12 -21 12 -39 0 -19 5 -37 12 -41 8 -5 6 -11 -6 -20
-10 -7 -17 -15 -17 -18 2 -18 -1 -25 -24 -52 l-24 -28 24 -26 c14 -14 25 -30
25 -36 0 -14 38 -34 54 -28 8 3 17 12 20 20 4 10 14 12 29 9 33 -9 52 15 33
40 -10 14 -11 25 -3 42 13 29 -6 53 -43 53 -15 0 -33 7 -41 16 -19 23 6 36 56
29 34 -4 37 -3 20 7 -25 15 -75 19 -75 6 0 -5 -5 -8 -12 -6 -7 3 -12 20 -12
38 -1 27 -6 35 -21 37 -11 2 -14 0 -7 -3z m101 -148 c31 7 33 6 22 -14 -6 -11
-16 -23 -23 -25 -9 -4 -6 -12 10 -25 30 -27 28 -35 -9 -27 -25 6 -34 3 -46
-14 -16 -24 -33 -19 -33 10 0 11 -11 24 -25 31 -30 13 -33 28 -6 28 21 0 31
18 31 58 l1 27 22 -28 c20 -23 28 -26 56 -21z"/>
<path d="M1783 1173 c-13 -2 -23 -9 -23 -15 0 -5 7 -7 16 -4 9 3 25 6 35 6 11
0 17 5 14 10 -3 6 -9 9 -13 9 -4 -1 -17 -4 -29 -6z"/>
<path d="M1698 1155 c18 -8 32 -22 33 -32 0 -10 3 -13 5 -6 10 23 -16 53 -44
53 -27 -1 -27 -1 6 -15z"/>
<path d="M557 1143 c-3 -5 -7 -28 -11 -53 -7 -52 -1 -44 13 18 8 40 8 51 -2
35z"/>
<path d="M1888 1039 c2 -63 -1 -139 -6 -169 -6 -31 -7 -59 -2 -64 5 -5 9 -1
10 10 9 199 10 293 3 313 -6 15 -8 -17 -5 -90z"/>
<path d="M1451 995 c-1 -56 -6 -104 -12 -112 -6 -7 -8 -13 -4 -13 4 0 3 -6 -2
-12 -6 -7 -13 -25 -17 -40 -3 -15 -29 -50 -56 -77 -28 -28 -55 -62 -60 -76 -5
-14 -15 -25 -21 -25 -8 0 -7 6 2 18 13 15 12 16 -3 3 -10 -7 -15 -17 -12 -22
3 -5 -2 -9 -11 -9 -10 0 -13 -5 -9 -12 5 -8 2 -9 -10 -5 -9 4 -15 3 -12 -2 3
-5 -18 -18 -47 -29 -75 -30 -95 -35 -167 -42 l-65 -7 57 -2 c178 -4 358 118
433 294 20 47 38 231 26 253 -6 10 -9 -20 -10 -83z"/>
<path d="M1748 1055 c-2 -22 -9 -30 -23 -31 -46 -2 -56 -5 -50 -14 4 -7 12 -7
25 0 31 17 36 11 10 -12 -24 -20 -24 -20 -2 -14 25 8 26 7 12 -29 -7 -17 -7
-24 0 -20 6 3 10 14 10 23 0 14 2 13 13 -3 10 -12 16 -14 21 -7 4 7 2 12 -4
12 -7 0 -9 7 -6 16 3 8 2 12 -4 9 -6 -3 -10 -1 -10 4 0 6 6 11 13 11 9 0 8 3
-2 9 -9 6 -10 10 -2 16 7 4 17 3 24 -3 7 -5 23 -6 37 -2 30 7 40 40 13 40 -15
0 -16 2 -3 11 12 9 12 10 1 7 -21 -6 -26 -28 -6 -28 9 0 13 -4 10 -10 -3 -5
-17 -10 -31 -10 -14 0 -23 4 -20 9 3 4 -1 17 -8 27 -13 18 -14 17 -18 -11z"/>
<path d="M533 995 c0 -22 2 -30 4 -17 2 12 2 30 0 40 -3 9 -5 -1 -4 -23z"/>
<path d="M1823 966 c0 -14 3 -26 8 -26 11 0 11 21 0 39 -6 9 -8 5 -8 -13z"/>
<path d="M1780 966 c0 -2 7 -7 16 -10 8 -3 12 -2 9 4 -6 10 -25 14 -25 6z"/>
<path d="M542 910 c0 -14 2 -19 5 -12 2 6 2 18 0 25 -3 6 -5 1 -5 -13z"/>
<path d="M1730 895 c-19 -22 -8 -25 13 -3 9 10 13 18 8 18 -5 0 -14 -7 -21
-15z"/>
<path d="M216 883 c-3 -3 -6 -15 -6 -26 0 -10 -9 -30 -20 -44 -19 -24 -19 -27
-4 -44 9 -10 20 -16 25 -13 10 6 40 -39 56 -85 9 -25 11 -27 8 -8 -6 31 -8 30
34 16 24 -8 35 -8 46 1 12 10 16 8 25 -14 12 -33 19 -34 12 -1 -5 26 -6 27
-62 29 -23 1 -35 6 -35 15 0 8 -6 16 -14 19 -9 3 -11 0 -5 -9 7 -12 5 -12 -9
0 -9 7 -17 22 -17 32 0 19 -7 22 -42 22 -24 0 -23 10 2 32 12 10 19 24 16 30
-9 26 9 37 39 23 22 -10 29 -10 33 0 2 6 10 12 17 12 10 0 12 -7 5 -28 -6 -23
-4 -31 12 -41 18 -11 19 -10 13 11 -4 13 -10 29 -12 36 -4 8 1 10 13 6 17 -6
16 -4 -3 16 -15 16 -27 21 -40 15 -21 -9 -20 -9 -54 -1 -14 3 -29 3 -33 -1z"/>
<path d="M1740 875 c0 -15 18 -40 24 -34 3 3 -1 14 -9 25 -8 10 -14 15 -15 9z"/>
<path d="M1704 851 c-5 -5 -18 -11 -29 -14 -15 -4 -14 -5 7 -6 15 0 30 4 33
10 9 14 1 21 -11 10z"/>
<path d="M1550 838 c-1 -41 -119 -231 -173 -278 -10 -8 -29 -26 -44 -40 -14
-14 -22 -18 -18 -10 5 8 -5 1 -22 -15 -19 -19 -60 -41 -109 -57 -67 -23 -94
-27 -187 -26 -112 1 -222 23 -222 45 0 6 -4 15 -9 20 -5 5 -6 2 -1 -6 6 -11 3
-13 -13 -9 -31 9 -27 3 15 -22 76 -44 228 -61 362 -40 76 13 185 60 203 89 7
12 18 21 24 21 13 0 44 33 44 47 0 6 15 27 33 46 17 19 38 42 46 52 38 47 99
195 80 195 -5 0 -9 -6 -9 -12z"/>
<path d="M417 795 c4 -27 16 -66 29 -86 13 -20 20 -40 17 -43 -4 -3 -1 -6 6
-6 7 0 9 -5 5 -12 -4 -7 -3 -8 4 -4 7 4 12 1 12 -9 0 -9 11 -27 24 -40 13 -13
22 -26 20 -28 -6 -5 93 -90 124 -106 12 -6 22 -8 22 -3 0 4 -16 16 -35 25 -19
9 -35 23 -35 31 0 8 -15 30 -33 48 -65 65 -136 174 -137 210 -1 7 -7 27 -15
43 -13 29 -13 29 -8 -20z m163 -250 c13 -14 21 -25 18 -25 -2 0 -15 11 -28 25
-13 14 -21 25 -18 25 2 0 15 -11 28 -25z"/>
<path d="M509 818 c-12 -23 -12 -23 10 -4 23 21 26 26 11 26 -5 0 -15 -10 -21
-22z"/>
<path d="M392 810 c7 -10 14 -18 15 -16 6 6 -9 36 -18 36 -5 0 -4 -9 3 -20z"/>
<path d="M1810 820 c-8 -5 -12 -12 -9 -15 4 -3 12 1 19 10 14 17 11 19 -10 5z"/>
<path d="M1657 809 c7 -7 15 -10 18 -7 3 3 -2 9 -12 12 -14 6 -15 5 -6 -5z"/>
<path d="M321 771 c-31 -5 -57 -31 -32 -31 6 0 11 5 11 10 0 6 14 10 30 10 17
0 30 5 30 10 0 6 -1 9 -2 9 -2 -1 -18 -4 -37 -8z"/>
<path d="M1776 764 c-10 -25 -7 -34 9 -34 8 0 15 9 15 19 0 26 -16 35 -24 15z"/>
<path d="M1860 771 c0 -5 5 -13 10 -16 6 -3 10 -2 10 4 0 5 -4 13 -10 16 -5 3
-10 2 -10 -4z"/>
<path d="M1706 743 c-6 -14 -5 -15 5 -6 7 7 10 15 7 18 -3 3 -9 -2 -12 -12z"/>
<path d="M1846 705 c-9 -21 -16 -43 -16 -51 0 -15 -41 -87 -52 -92 -4 -2 -8
-10 -8 -19 0 -44 -166 -222 -277 -296 -39 -27 -111 -62 -160 -80 -48 -17 -90
-35 -91 -39 -2 -5 -8 -6 -13 -2 -5 3 -25 0 -44 -6 -39 -13 -338 -22 -330 -11
2 4 -1 8 -8 9 -47 5 -120 23 -153 37 -71 30 -84 35 -84 27 0 -8 60 -33 125
-52 22 -7 58 -19 80 -26 47 -16 334 -20 363 -5 9 5 42 15 72 21 144 33 286
116 402 233 72 72 128 147 128 169 0 16 19 38 33 38 4 0 5 -5 1 -12 -4 -7 -3
-8 4 -4 18 11 14 26 -5 26 -11 0 -14 3 -7 8 6 4 23 41 37 82 27 79 29 108 3
45z"/>
<path d="M1676 691 c-4 -6 -2 -11 5 -11 7 0 4 -7 -7 -15 -10 -8 -32 -15 -47
-15 -25 0 -27 -2 -17 -20 11 -21 32 -28 28 -9 -2 6 7 15 19 19 31 12 59 -20
43 -49 -10 -20 -13 -20 -33 -6 -30 21 -40 19 -54 -11 -10 -22 -10 -25 5 -22 9
3 16 10 15 16 -5 22 19 12 48 -19 l29 -31 0 36 c0 25 6 40 20 48 27 17 25 28
-5 28 -19 0 -25 5 -25 23 0 29 -15 53 -24 38z"/>
<path d="M670 672 c6 -13 14 -21 18 -18 3 4 -2 14 -12 24 -18 16 -18 16 -6 -6z"/>
<path d="M166 648 c10 -34 56 -116 95 -172 64 -92 219 -239 219 -207 0 6 -4
11 -10 11 -15 0 -134 116 -179 174 -22 28 -58 88 -81 134 -40 80 -58 105 -44
60z"/>
<path d="M291 634 c0 -11 3 -14 6 -6 3 7 2 16 -1 19 -3 4 -6 -2 -5 -13z"/>
<path d="M410 610 c-12 -8 -10 -10 8 -10 13 0 20 4 17 10 -7 12 -6 12 -25 0z"/>
<path d="M364 576 c-3 -9 -11 -13 -18 -9 -7 4 -7 1 1 -9 7 -8 10 -18 6 -21 -3
-4 -1 -7 5 -7 6 0 14 11 18 25 7 29 -2 46 -12 21z"/>
<path d="M283 573 c9 -2 25 -2 35 0 9 3 1 5 -18 5 -19 0 -27 -2 -17 -5z"/>
<path d="M479 542 c10 -19 10 -23 -2 -20 -8 2 -24 -8 -35 -22 -12 -14 -21 -19
-22 -12 0 6 -7 12 -17 12 -14 0 -15 -2 -1 -17 23 -26 29 -73 10 -73 -8 0 -12
-3 -9 -7 4 -3 18 0 32 7 21 11 27 11 43 -3 27 -24 32 -21 32 18 0 23 6 38 16
42 12 4 11 8 -8 17 -13 7 -23 21 -24 34 -1 13 -7 29 -14 35 -10 10 -10 7 -1
-11z m11 -57 c11 -10 15 -25 12 -44 -4 -27 -5 -28 -33 -18 -29 12 -46 38 -34
57 4 6 11 8 16 5 5 -4 9 -1 9 4 0 15 11 14 30 -4z"/>
<path d="M1409 533 c-65 -62 -90 -83 -99 -83 -6 0 -18 -7 -27 -15 -8 -8 -19
-13 -24 -10 -5 4 -9 1 -9 -4 0 -6 -3 -10 -7 -9 -5 1 -28 -4 -53 -11 -73 -21
-109 -25 -228 -24 -108 1 -117 3 -189 37 -42 20 -78 34 -80 32 -6 -6 101 -60
147 -74 49 -15 238 -24 242 -11 2 5 33 11 70 12 36 1 61 5 56 8 -10 6 60 35
75 31 4 -1 7 2 7 8 0 6 7 10 15 10 9 0 27 12 40 26 14 15 25 23 25 18 0 -4 16
7 35 26 33 32 44 51 28 49 -5 0 -15 -8 -24 -16z"/>
<path d="M843 530 c-40 -16 -19 -81 25 -79 14 0 13 3 -5 16 -13 8 -23 24 -23
35 0 17 5 20 30 16 32 -5 41 6 14 16 -9 3 -16 6 -17 5 -1 0 -12 -4 -24 -9z"/>
<path d="M384 515 c-18 -14 -18 -14 4 -8 12 3 22 9 22 14 0 12 -3 11 -26 -6z"/>
<path d="M1565 508 c-19 -19 -29 -19 -70 -2 -20 8 -20 8 -2 -20 17 -25 17 -29
3 -45 -23 -25 -20 -31 14 -31 19 0 30 -5 30 -14 0 -7 7 -19 15 -26 13 -11 15
-8 15 13 0 26 30 53 44 40 3 -3 6 3 6 14 0 12 -6 23 -14 26 -8 3 -16 19 -18
35 -3 28 -3 29 -23 10z m8 -80 c-12 -13 -20 -15 -34 -7 -21 11 -25 29 -7 29 6
0 8 3 5 7 -4 3 1 12 11 19 14 11 19 9 29 -9 9 -18 8 -25 -4 -39z"/>
<path d="M916 508 c-19 -11 -21 -49 -4 -66 32 -32 85 -1 74 42 -6 26 -43 39
-70 24z m52 -31 c4 -20 -25 -34 -40 -19 -15 15 -1 44 19 40 10 -2 19 -11 21
-21z"/>
<path d="M1103 495 l5 -30 -18 23 c-25 30 -54 30 -46 0 3 -13 6 -31 6 -40 0
-10 5 -18 11 -18 7 0 10 12 7 30 l-5 30 27 -25 c14 -14 29 -25 33 -25 9 0 -4
63 -16 75 -6 7 -8 0 -4 -20z"/>
<path d="M1000 470 c0 -30 4 -40 16 -40 11 0 14 5 10 16 -3 9 -6 27 -6 40 0
13 -4 24 -10 24 -5 0 -10 -18 -10 -40z"/>
<path d="M606 404 c-4 -16 -2 -31 5 -38 9 -8 10 -8 5 1 -3 6 -2 14 3 17 5 3
11 -1 15 -9 3 -8 11 -15 19 -15 8 0 13 -12 13 -34 l0 -34 -40 14 c-45 16 -49
15 -44 -17 3 -22 4 -22 20 -5 14 13 22 15 37 6 11 -5 27 -10 35 -10 13 0 14 4
4 25 -9 19 -9 28 0 37 15 15 -4 39 -24 31 -8 -3 -15 0 -15 6 -1 6 -2 15 -3 21
0 5 -6 14 -12 20 -9 9 -13 4 -18 -16z"/>
<path d="M678 393 c7 -3 16 -2 19 1 4 3 -2 6 -13 5 -11 0 -14 -3 -6 -6z"/>
<path d="M1336 373 c6 -21 2 -31 -21 -49 l-28 -22 36 -7 c27 -5 37 -12 37 -26
0 -29 16 -31 34 -4 12 19 23 24 41 21 33 -6 39 7 15 29 -14 13 -18 26 -15 46
5 30 -3 37 -22 18 -8 -8 -17 -7 -34 5 -36 24 -51 21 -43 -11z m72 -19 c-4 -3
3 -15 15 -27 21 -21 21 -22 2 -25 -11 -2 -25 -8 -30 -12 -6 -5 -19 -2 -29 6
-10 7 -23 11 -27 8 -5 -3 -1 9 9 25 11 21 25 31 41 31 13 0 22 -3 19 -6z"/>
<path d="M562 363 c-10 -4 -10 -8 -1 -19 13 -15 34 -20 25 -5 -4 5 -1 11 6 13
8 3 8 6 -3 10 -7 3 -20 3 -27 1z"/>
<path d="M769 345 c-1 -5 -1 -14 0 -18 3 -18 -34 -67 -47 -62 -7 3 -10 0 -7
-6 4 -6 18 -14 31 -19 17 -7 24 -17 24 -37 l0 -27 28 26 c21 21 34 25 56 21
32 -6 32 -6 -11 41 -10 11 -9 15 2 20 8 3 15 12 15 21 0 11 -6 14 -25 9 -19
-5 -30 0 -45 17 -10 13 -20 20 -21 14z m59 -71 c0 -34 -32 -50 -59 -30 l-21
14 20 18 c12 10 19 21 17 24 -3 4 6 5 19 3 17 -4 24 -12 24 -29z"/>
<path d="M1172 302 c-7 -21 -20 -34 -36 -38 -33 -8 -34 -24 -1 -24 25 0 30
-11 27 -53 -2 -15 1 -16 18 -7 24 13 24 11 5 46 -12 25 -13 31 -1 43 13 12 17
11 32 -4 16 -16 16 -18 1 -27 -30 -16 -14 -34 41 -44 15 -3 15 -1 0 31 -8 18
-8 32 -1 48 10 22 9 23 -13 19 -17 -3 -30 3 -42 19 l-19 22 -11 -31z"/>
<path d="M985 278 c-7 -16 -20 -24 -43 -26 -31 -3 -32 -5 -15 -17 14 -10 21
-11 32 -2 12 10 13 9 6 -3 -5 -8 -10 -29 -12 -48 -4 -33 -4 -33 21 -17 19 13
29 14 45 6 29 -16 31 -14 31 21 0 17 8 40 18 51 16 19 16 20 -1 14 -23 -9 -57
9 -57 28 0 22 -14 18 -25 -7z m35 -47 c17 -32 12 -40 -17 -32 -16 4 -27 10
-25 14 1 4 2 14 2 22 0 22 27 19 40 -4z"/>
<path d="M520 238 c31 -27 70 -51 76 -45 2 2 -19 18 -48 36 -39 24 -46 26 -28
9z"/>
</g>
</svg>
